<svg xmlns="http://www.w3.org/2000/svg" width="140" height="21" viewBox="0 0 140 21" fill="none">
  <g clip-path="url(#clip0_7_289)">
    <path d="M38.254 16.3172C41.106 16.3172 43.406 14.6952 44.206 12.1012H40.309C39.933 12.7662 39.169 13.1672 38.254 13.1672C37.017 13.1672 36.189 12.4932 35.934 11.1892H44.374C44.425 10.8372 44.455 10.4952 44.455 10.1522C44.455 6.81721 41.918 4.20221 38.254 4.20221C34.686 4.20221 32.079 6.76622 32.079 10.2512C32.079 13.7242 34.707 16.3172 38.254 16.3172ZM40.598 9.02022H36.002C36.319 7.89122 37.112 7.27121 38.254 7.27121C39.435 7.27121 40.254 7.88321 40.598 9.02022ZM51.544 16.3162C52.864 16.3162 54.044 15.8822 54.974 15.1282L55.31 15.9322H58.337V4.56321H55.418L55.018 5.44321C54.078 4.66821 52.883 4.22121 51.544 4.22121C48.068 4.22121 45.583 6.72622 45.583 10.2472C45.583 13.7802 48.068 16.3172 51.544 16.3172V16.3162ZM52.068 12.8492C50.601 12.8492 49.523 11.7412 49.523 10.2562C49.523 8.78121 50.592 7.67321 52.068 7.67321C53.534 7.67321 54.612 8.78121 54.612 10.2562C54.612 11.7412 53.534 12.8492 52.068 12.8492ZM65.191 16.3162C68.211 16.3162 70.216 14.7622 70.216 12.3862C70.216 9.50322 67.829 9.13021 66.033 8.81121C64.953 8.61821 64.083 8.46721 64.083 7.82121C64.083 7.29421 64.505 6.98321 65.133 6.98321C65.843 6.98321 66.33 7.32022 66.33 8.04622H69.997C69.953 5.74322 68.077 4.20321 65.181 4.20321C62.269 4.20321 60.327 5.67321 60.327 7.95321C60.327 10.7102 62.664 11.2422 64.427 11.5272C65.519 11.7082 66.379 11.8952 66.379 12.5512C66.379 13.1382 65.836 13.4312 65.263 13.4312C64.521 13.4312 63.943 13.0482 63.943 12.2172H60.173C60.209 14.6802 62.092 16.3172 65.191 16.3172V16.3162ZM73.291 20.1742C76.227 20.1742 77.635 18.9172 79.168 15.4382L83.932 4.57521H79.726L77.477 10.8382L75.065 4.57521H70.81L75.508 15.0052C74.978 16.4192 74.525 16.8092 73.028 16.8092H71.95V20.1742H73.291ZM91.795 16.3162C95.295 16.3162 97.768 13.8012 97.768 10.2682C97.768 6.73522 95.296 4.22021 91.795 4.22021C90.7986 4.21244 89.8199 4.48404 88.97 5.00421V0.470215H85.1V15.9442H87.997L88.367 15.1002C89.29 15.8712 90.469 16.3162 91.795 16.3162ZM91.272 12.8492C89.805 12.8492 88.727 11.7412 88.727 10.2692C88.727 8.78321 89.805 7.67521 91.272 7.67521C92.738 7.67521 93.816 8.78322 93.816 10.2682C93.816 11.7412 92.729 12.8492 91.272 12.8492ZM104.87 16.3162C106.19 16.3162 107.37 15.8822 108.3 15.1282L108.636 15.9322H111.663V4.56321H108.745L108.344 5.44321C107.405 4.66821 106.209 4.22121 104.87 4.22121C101.394 4.22121 98.91 6.72622 98.91 10.2472C98.91 13.7802 101.394 16.3172 104.87 16.3172V16.3162ZM105.394 12.8492C103.927 12.8492 102.849 11.7412 102.849 10.2562C102.849 8.78121 103.919 7.67321 105.394 7.67321C106.861 7.67321 107.939 8.78121 107.939 10.2562C107.939 11.7412 106.861 12.8492 105.394 12.8492ZM118.047 15.9442V9.87321C118.047 8.42621 118.749 7.57322 119.97 7.57322C120.956 7.57322 121.453 8.23022 121.453 9.55322V15.9432H125.368V9.01322C125.368 6.11621 123.635 4.24021 120.995 4.24021C119.525 4.24021 118.262 4.80521 117.415 5.74821L116.878 4.57621H114.131V15.9452H118.047V15.9442ZM131.795 15.9442V11.1362L134.643 15.9442H139.259L135.357 9.99422L138.9 4.57521H134.503L131.795 9.02921V0.470215H127.879V15.9442H131.795Z" fill="white"/>
    <path fill-rule="evenodd" clip-rule="evenodd" d="M11.302 0.470215L0.5 20.1742H6.486L17.289 0.470215H11.302Z" fill="url(#paint0_linear_7_289)"/>
    <path opacity="0.5" fill-rule="evenodd" clip-rule="evenodd" d="M18.671 0.470215L7.868 20.1742H13.854L24.657 0.470215H18.671Z" fill="url(#paint1_linear_7_289)"/>
    <path opacity="0.15" fill-rule="evenodd" clip-rule="evenodd" d="M26.039 0.470215L15.237 20.1742H21.223L32.025 0.470215H26.039Z" fill="url(#paint2_linear_7_289)"/>
  </g>
  <defs>
    <linearGradient id="paint0_linear_7_289" x1="1212.58" y1="0.470101" x2="48.9379" y2="1813.34" gradientUnits="userSpaceOnUse">
      <stop stop-color="#33D35E"/>
      <stop offset="1" stop-color="#2AB6D9"/>
    </linearGradient>
    <linearGradient id="paint1_linear_7_289" x1="1219.95" y1="0.470101" x2="56.3059" y2="1813.34" gradientUnits="userSpaceOnUse">
      <stop stop-color="#33D35E"/>
      <stop offset="1" stop-color="#2AB6D9"/>
    </linearGradient>
    <linearGradient id="paint2_linear_7_289" x1="1227.25" y1="0.470101" x2="63.5737" y2="1813.28" gradientUnits="userSpaceOnUse">
      <stop stop-color="#33D35E"/>
      <stop offset="1" stop-color="#2AB6D9"/>
    </linearGradient>
    <clipPath id="clip0_7_289">
      <rect width="139" height="20" fill="white" transform="translate(0.5 0.470215)"/>
    </clipPath>
  </defs>
</svg>